<?xml version="1.0" standalone="no"?>
<!DOCTYPE svg PUBLIC "-//W3C//DTD SVG 20010904//EN"
 "http://www.w3.org/TR/2001/REC-SVG-20010904/DTD/svg10.dtd">
<svg version="1.0" xmlns="http://www.w3.org/2000/svg"
 width="2083.000000pt" height="1820.000000pt" viewBox="0 0 2083.000000 1820.000000"
 preserveAspectRatio="xMidYMid meet">

<g transform="translate(0.000000,1820.000000) scale(0.100000,-0.100000)"
fill="#000000" stroke="none">
<path d="M8891 18190 l-964 -5 -3955 -6980 c-2175 -3839 -3957 -6988 -3959
-6997 -5 -17 120 -18 2529 -18 l2534 0 1274 2275 c701 1252 1276 2270 1277
2263 1 -7 9 -821 19 -1808 9 -987 17 -1796 18 -1797 0 0 106 186 235 415 129
230 1105 1961 2169 3847 1064 1887 2125 3769 2358 4182 l424 753 0 1940 0
1940 -1497 -2 c-824 -2 -1932 -5 -2462 -8z"/>
<path d="M11582 11202 c-2179 -3849 -3962 -7001 -3962 -7005 0 -4 545 -6 1211
-5 l1210 3 3935 6950 c2164 3823 3948 6974 3965 7003 l29 52 -1213 0 -1213 0
-3962 -6998z"/>
<path d="M14425 11204 c-2178 -3848 -3962 -7000 -3963 -7005 -2 -5 496 -8
1209 -7 l1214 3 3962 6999 c2180 3850 3963 7001 3963 7003 0 2 -546 3 -1212 3
l-1213 -1 -3960 -6995z"/>
<path d="M18527 13408 l-2287 -4033 2 -985 c0 -542 4 -1496 7 -2121 l6 -1137
2279 4002 2278 4001 6 2153 c3 1183 3 2152 1 2152 -3 0 -1034 -1815 -2292
-4032z"/>
<path d="M18502 8264 c-1273 -2247 -2312 -4088 -2309 -4090 2 -2 547 -1 1211
3 l1208 8 1109 1940 1109 1939 -1 1066 c-1 586 -5 1550 -8 2143 l-6 1077
-2313 -4086z"/>
<path d="M19962 5738 c-468 -832 -854 -1521 -858 -1530 -6 -17 39 -18 855 -18
l861 0 0 1530 c0 842 -2 1530 -4 1530 -2 0 -386 -681 -854 -1512z"/>
<path d="M10540 2643 c-141 -10 -338 -61 -445 -116 -226 -114 -426 -358 -519
-630 -121 -353 -112 -867 20 -1199 67 -170 151 -295 277 -414 144 -135 321
-223 530 -261 140 -26 401 -23 536 6 225 48 367 124 521 280 195 196 300 419
345 731 17 124 20 416 4 545 -14 117 -58 291 -98 385 -191 459 -631 712 -1171
673z m295 -460 c94 -23 192 -80 265 -153 79 -80 124 -153 160 -263 46 -136 55
-213 54 -442 0 -173 -4 -227 -21 -305 -62 -287 -206 -467 -438 -546 -116 -39
-274 -39 -390 0 -327 112 -493 438 -472 926 16 376 133 612 363 732 143 75
311 93 479 51z"/>
<path d="M60 1325 l0 -1275 225 0 225 0 1 993 c0 545 4 983 8 972 4 -11 111
-458 236 -992 l229 -973 236 0 235 0 235 990 235 991 3 -991 2 -990 225 0 225
0 0 1275 0 1275 -363 0 -364 0 -176 -712 c-97 -392 -194 -782 -214 -865 -21
-84 -40 -149 -44 -145 -3 4 -102 393 -220 865 l-214 857 -362 0 -363 0 0
-1275z"/>
<path d="M2870 1325 l0 -1275 915 0 915 0 -2 213 -3 212 -672 3 -673 2 0 345
0 345 605 0 605 0 0 215 0 215 -605 0 -605 0 0 285 0 285 650 0 650 0 0 215 0
215 -890 0 -890 0 0 -1275z"/>
<path d="M4930 2385 l0 -215 360 0 360 0 0 -1060 0 -1060 240 0 240 0 0 1060
0 1060 360 0 360 0 0 215 0 215 -960 0 -960 0 0 -215z"/>
<path d="M7160 1325 l0 -1275 245 0 245 0 0 531 0 531 148 -4 c132 -4 153 -7
204 -30 115 -53 166 -120 542 -715 l198 -313 290 0 c159 0 287 3 285 8 -461
796 -545 916 -737 1058 l-80 59 58 12 c285 58 482 234 547 488 36 139 29 343
-17 480 -49 149 -172 295 -301 358 -162 79 -255 87 -1012 87 l-615 0 0 -1275z
m1276 822 c68 -22 135 -83 165 -149 28 -63 33 -193 10 -273 -19 -66 -106 -155
-170 -174 -68 -20 -253 -31 -533 -31 l-258 0 0 326 0 326 368 -4 c305 -4 376
-8 418 -21z"/>
<path d="M12200 1325 l0 -1276 588 4 c553 3 592 5 672 24 304 75 503 246 632
544 91 212 122 386 122 684 0 235 -13 358 -54 520 -57 224 -158 404 -303 541
-126 118 -221 168 -398 210 -65 15 -148 18 -666 21 l-593 4 0 -1276z m1109
821 c226 -57 351 -232 392 -547 15 -113 14 -441 -1 -564 -32 -263 -119 -427
-267 -500 -91 -44 -178 -54 -480 -55 l-273 0 0 846 0 847 283 -6 c211 -4 298
-9 346 -21z"/>
<path d="M15311 2578 c-72 -193 -921 -2519 -921 -2523 0 -3 116 -4 257 -3
l257 3 97 285 97 285 480 3 480 2 41 -112 c22 -62 69 -192 104 -288 l64 -175
261 -3 c144 -1 262 1 262 5 0 5 -214 578 -477 1276 l-476 1267 -259 0 -258 0
-9 -22z m443 -1092 c80 -230 146 -420 146 -422 0 -2 -146 -4 -325 -4 -179 0
-325 2 -325 3 0 5 261 767 297 866 l26 75 18 -50 c9 -27 83 -237 163 -468z"/>
<path d="M16640 2385 l0 -215 355 0 355 0 0 -1060 0 -1060 245 0 245 0 0 1060
0 1060 355 0 355 0 0 215 0 215 -955 0 -955 0 0 -215z"/>
<path d="M19300 2578 c-20 -46 -920 -2511 -920 -2520 0 -4 114 -7 256 -6 l256
3 97 285 97 285 480 3 480 2 105 -290 104 -290 264 0 c206 0 262 3 259 13 -3
6 -218 580 -479 1274 l-474 1263 -258 0 -257 0 -10 -22z m423 -1035 c85 -247
158 -456 162 -465 7 -17 -12 -18 -320 -18 -273 0 -326 2 -323 14 10 43 314
916 319 916 3 0 76 -201 162 -447z"/>
</g>
</svg>
